<svg width="32" height="32" viewBox="0 0 32 32" fill="none" xmlns="http://www.w3.org/2000/svg">
  <path d="M16 31.3044C15.9406 31.2464 15.8742 31.1812 15.8012 31.1091C15.4539 30.7663 14.957 30.2679 14.3603 29.6475C13.1665 28.4062 11.5762 26.6793 9.98714 24.7346C8.39657 22.788 6.81609 20.6337 5.63564 18.537C4.44765 16.427 3.69995 14.4358 3.69995 12.8C3.69995 6.0069 9.20685 0.5 16 0.5C22.7931 0.5 28.3 6.0069 28.3 12.8C28.3 14.4358 27.5522 16.427 26.3643 18.537C25.1838 20.6337 23.6033 22.788 22.0128 24.7346C20.4237 26.6793 18.8334 28.4062 17.6396 29.6475C17.0429 30.2679 16.546 30.7663 16.1987 31.1091C16.1257 31.1812 16.0593 31.2464 16 31.3044Z" fill="#98CA02" stroke="#65B300"/>
  <mask id="mask0_3_0" style="mask-type:luminance" maskUnits="userSpaceOnUse" x="3" y="0" width="26" height="32">
    <path d="M16 31.3044C15.9406 31.2464 15.8742 31.1812 15.8012 31.1091C15.4539 30.7663 14.957 30.2679 14.3603 29.6475C13.1665 28.4062 11.5762 26.6793 9.98714 24.7346C8.39657 22.788 6.81609 20.6337 5.63564 18.537C4.44765 16.427 3.69995 14.4358 3.69995 12.8C3.69995 6.0069 9.20685 0.5 16 0.5C22.7931 0.5 28.3 6.0069 28.3 12.8C28.3 14.4358 27.5522 16.427 26.3643 18.537C25.1838 20.6337 23.6033 22.788 22.0128 24.7346C20.4237 26.6793 18.8334 28.4062 17.6396 29.6475C17.0429 30.2679 16.546 30.7663 16.1987 31.1091C16.1257 31.1812 16.0593 31.2464 16 31.3044Z" fill="white" stroke="white"/>
  </mask>
  <g mask="url(#mask0_3_0)"></g>
  <path fill-rule="evenodd" clip-rule="evenodd" d="M16 17.6C18.6509 17.6 20.8 15.451 20.8 12.8C20.8 10.149 18.6509 8 16 8C13.349 8 11.2 10.149 11.2 12.8C11.2 15.451 13.349 17.6 16 17.6Z" fill="white" stroke="#65B300"/>
</svg>
